<?xml version="1.0" encoding="UTF-8" standalone="no"?>
<!-- Created with Inkscape (http://www.inkscape.org/) -->

<svg
   width="53.028374mm"
   height="46.379665mm"
   viewBox="0 0 53.028374 46.379665"
   version="1.1"
   id="svg5"
   inkscape:version="1.1.1 (c3084ef, 2021-09-22)"
   sodipodi:docname="logo.svg"
   inkscape:export-filename="/Users/dejordenmoerman/Documents/Andromeda_Development/Logo/logo/high-res/logo-only.png"
   inkscape:export-xdpi="96"
   inkscape:export-ydpi="96"
   xmlns:inkscape="http://www.inkscape.org/namespaces/inkscape"
   xmlns:sodipodi="http://sodipodi.sourceforge.net/DTD/sodipodi-0.dtd"
   xmlns:xlink="http://www.w3.org/1999/xlink"
   xmlns="http://www.w3.org/2000/svg"
   xmlns:svg="http://www.w3.org/2000/svg">
  <sodipodi:namedview
     id="namedview7"
     pagecolor="#ffffff"
     bordercolor="#666666"
     borderopacity="1.0"
     inkscape:pageshadow="2"
     inkscape:pageopacity="0.0"
     inkscape:pagecheckerboard="0"
     inkscape:document-units="mm"
     showgrid="false"
     fit-margin-top="0"
     fit-margin-left="0"
     fit-margin-right="0"
     fit-margin-bottom="0"
     inkscape:zoom="3.1496409"
     inkscape:cx="81.437856"
     inkscape:cy="88.740275"
     inkscape:window-width="1920"
     inkscape:window-height="945"
     inkscape:window-x="1440"
     inkscape:window-y="25"
     inkscape:window-maximized="0"
     inkscape:current-layer="g80" />
  <defs
     id="defs2">
    <linearGradient
       id="linearGradient194e718deb1246bd6f657320b87575a2"
       class="linearGradient1"
       gradientTransform="scale(0.99869483,1.0013069)"
       x1="50.360729"
       y1="12.990024"
       x2="50.360729"
       y2="86.878464"
       gradientUnits="userSpaceOnUse">
      <stop
         id="stop1"
         offset="0%"
         class="linearGradientColor1"
         stop-color="#96ceb7" />
      <stop
         id="stop2"
         offset="83.33333333333334%"
         class="linearGradientColor2"
         stop-color="#4f695e" />
    </linearGradient>
    <linearGradient
       id="linearGradient0b05c13acc5ec0297537a27abdbcef5d"
       class="linearGradient1"
       gradientTransform="rotate(-120,0.5,0.5)"
       x1="0.5"
       y1="0"
       x2="0.5"
       y2="1">
      <stop
         id="stop28"
         offset="0%"
         class="linearGradientColor1"
         stop-color="#b1f4d8" />
      <stop
         id="stop30"
         offset="83.33333333333334%"
         class="linearGradientColor2"
         stop-color="#ffffff" />
    </linearGradient>
    <linearGradient
       inkscape:collect="always"
       xlink:href="#linearGradient0b05c13acc5ec0297537a27abdbcef5d"
       id="linearGradient82"
       gradientTransform="scale(1.1776631,0.84913932)"
       x1="97.119888"
       y1="102.12223"
       x2="97.119888"
       y2="277.61639"
       gradientUnits="userSpaceOnUse" />
    <linearGradient
       inkscape:collect="always"
       xlink:href="#linearGradient0b05c13acc5ec0297537a27abdbcef5d"
       id="linearGradient84"
       gradientTransform="scale(1.1878661,0.84184571)"
       x1="113.45088"
       y1="0"
       x2="113.45088"
       y2="226.90144"
       gradientUnits="userSpaceOnUse" />
    <linearGradient
       id="linearGradient194e718deb1246bd6f657320b87575a2-4"
       class="linearGradient1"
       gradientTransform="translate(0.5,0.5) rotate(240) translate(-0.5,-0.5)"
       x1="50%"
       y1="0%"
       x2="50%"
       y2="100%">
      <stop
         id="stop1-8"
         offset="0%"
         class="linearGradientColor1"
         stop-color="#96ceb7" />
      <stop
         id="stop2-8"
         offset="83.33333333333334%"
         class="linearGradientColor2"
         stop-color="#4f695e" />
    </linearGradient>
    <linearGradient
       id="linearGradient0b05c13acc5ec0297537a27abdbcef5d-4"
       class="linearGradient1"
       gradientTransform="translate(0.5,0.5) rotate(240) translate(-0.5,-0.5)"
       x1="50%"
       y1="0%"
       x2="50%"
       y2="100%">
      <stop
         id="stop809"
         offset="0%"
         class="linearGradientColor1"
         stop-color="#b1f4d8" />
      <stop
         id="stop811"
         offset="83.33333333333334%"
         class="linearGradientColor2"
         stop-color="#ffffff" />
    </linearGradient>
  </defs>
  <g
     inkscape:label="Layer 1"
     inkscape:groupmode="layer"
     id="layer1"
     transform="translate(-67.86606,-98.873092)">
    <g
       id="g80"
       transform="matrix(0.26458333,0,0,0.26458333,27.468568,70.711768)">
      <g
         transform="translate(57.296082,302.66421)"
         opacity="1"
         id="g13" />
      <ellipse
         style="fill:#1a1a1a;fill-opacity:1;stroke-width:0.961004"
         id="path38165"
         cx="180.78188"
         cy="146.12357"
         rx="24.923477"
         ry="18.414797" />
      <ellipse
         style="fill:#1a1a1a;fill-opacity:1"
         id="path38269"
         cx="320.76022"
         cy="151.92455"
         rx="8.8142967"
         ry="8.7778606" />
      <ellipse
         style="fill:#1a1a1a;fill-opacity:1;stroke-width:1.04391"
         id="path37879"
         cx="246.74178"
         cy="194.93866"
         rx="83.675262"
         ry="86.433319" />
      <g
         transform="matrix(2.3202901,0,0,2.3202901,161.03495,108.52713)"
         opacity="0.6"
         id="g26">
        <defs
           class="defs"
           id="defs22">
          <linearGradient
             id="linearGradient64"
             class="linearGradient1"
             gradientTransform="rotate(-120,0.5,0.5)"
             x1="0.5"
             y1="0"
             x2="0.5"
             y2="1">
            <stop
               id="stop60"
               offset="0%"
               class="linearGradientColor1"
               stop-color="#96ceb7" />
            <stop
               id="stop62"
               offset="83.33333333333334%"
               class="linearGradientColor2"
               stop-color="#4f695e" />
          </linearGradient>
        </defs>
        <path
           transform="translate(-13.399,-13.007)"
           d="m 50.295,13.007 c -20.345,0 -36.896,16.595 -36.896,36.992 0,20.396 16.552,36.991 36.896,36.993 20.345,0 36.896,-16.595 36.896,-36.993 0,-20.397 -16.551,-36.992 -36.896,-36.992 z m 0,71.985 C 31.053,84.99 15.399,69.292 15.399,49.999 c 0,-19.295 15.654,-34.992 34.896,-34.992 14.186,0 26.412,8.536 31.863,20.751 C 76.857,25.88 66.43,19.146 54.457,19.146 c -17.325,0 -31.42,14.095 -31.42,31.42 0,17.323 14.095,31.418 31.42,31.419 9.062,0 17.236,-3.862 22.977,-10.021 -6.403,7.938 -16.187,13.028 -27.139,13.028 z M 79.083,52.665 c 1.367,0 2.477,1.109 2.477,2.478 0,1.367 -1.109,2.476 -2.477,2.476 -1.368,0 -2.477,-1.108 -2.477,-2.476 0,-1.369 1.109,-2.478 2.477,-2.478 z m -2.478,-6.343 c -0.343,0 -0.62,-0.278 -0.62,-0.621 0,-0.344 0.277,-0.621 0.62,-0.621 0.344,0 0.621,0.277 0.621,0.621 0.001,0.343 -0.277,0.621 -0.621,0.621 z m -6.279,16.481 c -2.511,0 -4.554,-2.068 -4.554,-4.611 0,-2.557 2,-4.56 4.554,-4.56 2.514,0 4.56,2.046 4.56,4.56 0,2.542 -2.046,4.611 -4.56,4.611 z m 4.424,2.245 c 0,0.343 -0.278,0.621 -0.622,0.621 -0.343,0 -0.62,-0.278 -0.62,-0.621 0,-0.344 0.277,-0.621 0.62,-0.621 0.344,0 0.622,0.277 0.622,0.621 z m -3.07,4.956 c 0,1.367 -1.109,2.476 -2.477,2.476 -1.368,0 -2.477,-1.108 -2.477,-2.476 0,-1.368 1.108,-2.478 2.477,-2.478 1.367,0 2.477,1.11 2.477,2.478 z m -9.771,-4.758 c -1.368,0 -2.477,-1.108 -2.477,-2.477 0,-1.367 1.108,-2.477 2.477,-2.477 1.369,0 2.478,1.109 2.478,2.477 0,1.369 -1.11,2.477 -2.478,2.477 z m 2.011,11.106 c 0,0.343 -0.277,0.62 -0.621,0.62 -0.343,0 -0.62,-0.277 -0.62,-0.62 0,-0.344 0.277,-0.621 0.62,-0.621 0.344,-10e-4 0.621,0.277 0.621,0.621 z M 53.957,47.555 c 0,-0.913 0.739,-1.651 1.658,-1.651 0.912,0 1.66,0.738 1.66,1.651 0,0.929 -0.748,1.65 -1.66,1.65 -0.919,0 -1.658,-0.722 -1.658,-1.65 z m 1.118,13.047 c 0,0.342 -0.277,0.619 -0.619,0.619 -0.343,0 -0.619,-0.277 -0.619,-0.619 0,-0.342 0.276,-0.619 0.619,-0.619 0.342,-10e-4 0.619,0.277 0.619,0.619 z m 2.953,-25.927 c 1.642,0 2.978,1.336 2.978,2.978 0,1.641 -1.336,2.976 -2.978,2.976 -1.641,0 -2.976,-1.335 -2.976,-2.976 10e-4,-1.642 1.336,-2.978 2.976,-2.978 z m -1.493,-3.808 c 0,-0.221 0.178,-0.398 0.397,-0.398 0.221,0 0.398,0.178 0.398,0.398 0,0.22 -0.178,0.397 -0.398,0.397 -0.219,0.001 -0.397,-0.177 -0.397,-0.397 z m 4.257,25.692 c 0,0.911 -0.739,1.658 -1.652,1.658 -0.911,0 -1.658,-0.747 -1.658,-1.658 0,-0.912 0.747,-1.66 1.658,-1.66 0.913,-10e-4 1.652,0.747 1.652,1.66 z m -2.764,12.053 c 1.368,0 2.478,1.109 2.478,2.478 0,1.367 -1.109,2.476 -2.478,2.476 -1.367,0 -2.476,-1.108 -2.476,-2.476 10e-4,-1.368 1.109,-2.478 2.476,-2.478 z m 4.765,-24.191 c 0,0.486 -0.396,0.882 -0.884,0.882 -0.487,0 -0.883,-0.396 -0.883,-0.882 0,-0.488 0.396,-0.884 0.883,-0.884 0.488,0 0.884,0.396 0.884,0.884 z m -0.114,-9.246 c 0,-0.344 0.277,-0.621 0.62,-0.621 0.344,0 0.621,0.277 0.621,0.621 0,0.343 -0.277,0.62 -0.621,0.62 -0.343,0 -0.62,-0.277 -0.62,-0.62 z m 1.424,16.903 c -0.268,0 -0.486,-0.217 -0.486,-0.483 0,-0.272 0.219,-0.483 0.486,-0.483 0.269,0 0.485,0.211 0.485,0.483 0,0.266 -0.217,0.483 -0.485,0.483 z M 63.299,32.423 c -1.642,0 -2.977,-1.335 -2.977,-2.977 0,-1.642 1.335,-2.977 2.977,-2.977 1.642,0 2.978,1.335 2.978,2.977 0,1.642 -1.337,2.977 -2.978,2.977 z m 5.904,8.327 c -1.368,0 -2.477,-1.108 -2.477,-2.477 0,-1.369 1.108,-2.478 2.477,-2.478 1.367,0 2.477,1.109 2.477,2.478 0,1.369 -1.11,2.477 -2.477,2.477 z m 1.126,6.805 c 0,0.929 -0.735,1.65 -1.664,1.65 -0.907,0 -1.651,-0.722 -1.651,-1.65 0,-0.913 0.744,-1.651 1.651,-1.651 0.929,-0.001 1.664,0.738 1.664,1.651 z M 42.177,65.669 c -0.343,0 -0.62,-0.278 -0.62,-0.621 0,-0.344 0.277,-0.621 0.62,-0.621 0.344,0 0.621,0.277 0.621,0.621 0,0.343 -0.277,0.621 -0.621,0.621 z m 0.621,7.897 c 0,0.343 -0.277,0.621 -0.621,0.621 -0.343,0 -0.62,-0.278 -0.62,-0.621 0,-0.344 0.277,-0.621 0.62,-0.621 0.344,0 0.621,0.278 0.621,0.621 z M 41.136,57.597 c -0.573,0 -1.037,-0.468 -1.037,-1.038 0,-0.571 0.464,-1.04 1.037,-1.04 0.573,0 1.042,0.469 1.042,1.04 0,0.57 -0.469,1.038 -1.042,1.038 z M 39.638,47.534 c 0,-1.74 1.419,-3.155 3.162,-3.155 1.742,0 3.159,1.415 3.159,3.155 0,1.763 -1.417,3.196 -3.159,3.196 -1.743,0 -3.162,-1.433 -3.162,-3.196 z m 0.826,-14.769 c -0.468,0 -0.847,-0.38 -0.847,-0.835 0,-0.471 0.379,-0.849 0.847,-0.849 0.456,0 0.836,0.378 0.836,0.849 0,0.455 -0.38,0.835 -0.836,0.835 z m 1.093,2.676 c 0.344,0 0.621,0.277 0.621,0.621 0,0.343 -0.277,0.621 -0.621,0.621 -0.344,0 -0.621,-0.278 -0.621,-0.621 0,-0.343 0.277,-0.621 0.621,-0.621 z m 3.281,-4.176 c 0,-0.344 0.277,-0.622 0.62,-0.622 0.344,0 0.622,0.278 0.622,0.622 0,0.343 -0.278,0.62 -0.622,0.62 -0.343,0 -0.62,-0.278 -0.62,-0.62 z m 2.92,25.517 c 1.19,0 2.159,0.969 2.159,2.159 0,1.19 -0.969,2.159 -2.159,2.159 -1.189,0 -2.157,-0.969 -2.157,-2.159 0,-1.19 0.967,-2.159 2.157,-2.159 z m 1.008,-21.199 c -0.653,0 -1.183,-0.53 -1.183,-1.183 0,-0.654 0.529,-1.184 1.183,-1.184 0.654,0 1.184,0.529 1.184,1.184 -0.001,0.653 -0.53,1.183 -1.184,1.183 z m 2.246,4.968 c 0,0.914 -0.75,1.656 -1.662,1.656 -0.918,0 -1.659,-0.742 -1.659,-1.656 0,-0.907 0.741,-1.658 1.659,-1.658 0.912,0 1.662,0.751 1.662,1.658 z m 0.065,23.875 c 0,0.907 -0.748,1.658 -1.66,1.658 -0.903,0 -1.658,-0.751 -1.658,-1.658 0,-0.913 0.755,-1.656 1.658,-1.656 0.912,0 1.66,0.743 1.66,1.656 z m -2.466,5.077 c 1.642,0 2.978,1.335 2.978,2.977 0,1.642 -1.336,2.977 -2.978,2.977 -1.642,0 -2.977,-1.335 -2.977,-2.977 0,-1.642 1.336,-2.977 2.977,-2.977 z m 2.478,-15.101 c -0.96,0 -1.737,-0.777 -1.737,-1.736 0,-0.96 0.777,-1.738 1.737,-1.738 0.959,0 1.737,0.778 1.737,1.738 0,0.959 -0.778,1.736 -1.737,1.736 z M 49.91,30.819 c -1.642,0 -2.977,-1.335 -2.977,-2.977 0,-1.642 1.335,-2.978 2.977,-2.978 1.642,0 2.978,1.336 2.978,2.978 0,1.642 -1.336,2.977 -2.978,2.977 z M 27.506,42.935 c 0,-1.802 1.48,-3.268 3.3,-3.268 1.832,0 3.267,1.436 3.267,3.268 0,1.831 -1.435,3.266 -3.267,3.266 -1.82,-10e-4 -3.3,-1.466 -3.3,-3.266 z m 0.723,6.067 c 0,0.343 -0.277,0.621 -0.621,0.621 -0.343,0 -0.621,-0.278 -0.621,-0.621 0,-0.344 0.278,-0.621 0.621,-0.621 0.344,0 0.621,0.277 0.621,0.621 z m 2.559,15.425 c 0.344,0 0.622,0.277 0.622,0.621 0,0.343 -0.278,0.621 -0.622,0.621 -0.343,0 -0.62,-0.278 -0.62,-0.621 0,-0.344 0.277,-0.621 0.62,-0.621 z m 0.307,-7.868 c 0,-1.368 1.108,-2.478 2.477,-2.478 1.369,0 2.478,1.109 2.478,2.478 0,1.367 -1.109,2.476 -2.478,2.476 -1.369,0 -2.477,-1.109 -2.477,-2.476 z m 4.666,-5.993 c 0,-0.344 0.277,-0.622 0.62,-0.622 0.345,0 0.622,0.278 0.622,0.622 0,0.343 -0.277,0.62 -0.622,0.62 -0.343,10e-4 -0.62,-0.277 -0.62,-0.62 z m 0.621,-12.914 c 0,-0.344 0.278,-0.622 0.621,-0.622 0.344,0 0.621,0.278 0.621,0.622 0,0.343 -0.277,0.62 -0.621,0.62 -0.343,0 -0.621,-0.277 -0.621,-0.62 z m 1.241,26.775 c 0.344,0 0.621,0.277 0.621,0.621 0,0.343 -0.277,0.621 -0.621,0.621 -0.343,0 -0.62,-0.278 -0.62,-0.621 0,-0.344 0.277,-0.621 0.62,-0.621 z m 32.703,-9.795 c -1.993,0 -3.554,1.563 -3.554,3.56 0,1.991 1.594,3.611 3.554,3.611 1.963,0 3.56,-1.62 3.56,-3.611 0,-1.963 -1.597,-3.56 -3.56,-3.56 z M 61.322,29.446 c 0,-1.09187 0.88513,-1.977 1.977,-1.977 1.09187,0 1.977,0.88513 1.977,1.977 0,1.09187 -0.88513,1.977 -1.977,1.977 -1.09187,0 -1.977,-0.88513 -1.977,-1.977 z M 47.933,27.842 c 0,-1.09187 0.88513,-1.977 1.977,-1.977 1.09187,0 1.977,0.88513 1.977,1.977 0,1.09187 -0.88513,1.977 -1.977,1.977 -1.09187,0 -1.977,-0.88513 -1.977,-1.977 z m -1.299,44.637 c 0,-1.09187 0.88513,-1.977 1.977,-1.977 1.09187,0 1.977,0.88513 1.977,1.977 0,1.09187 -0.88513,1.977 -1.977,1.977 -1.09187,0 -1.977,-0.88513 -1.977,-1.977 z M 58.028,39.628 c 1.091,0 1.978,-0.887 1.978,-1.976 0,-1.091 -0.887,-1.978 -1.978,-1.978 -1.089,0 -1.976,0.887 -1.976,1.978 10e-4,1.089 0.887,1.976 1.976,1.976 z M 30.806,45.2 c 1.271,0 2.267,-0.995 2.267,-2.266 0,-1.271 -0.996,-2.268 -2.267,-2.268 -1.269,0 -2.3,1.018 -2.3,2.268 0,1.25 1.031,2.266 2.3,2.266 z m 14.153,2.334 c 0,-1.188 -0.969,-2.155 -2.159,-2.155 -1.172,0 -2.162,0.987 -2.162,2.155 0,1.211 0.97,2.196 2.162,2.196 1.211,0 2.159,-0.964 2.159,-2.196 z m 2.799,12.567 c 0.628,0 1.159,-0.531 1.159,-1.159 0,-0.628 -0.531,-1.159 -1.159,-1.159 -0.638,0 -1.157,0.52 -1.157,1.159 0,0.639 0.519,1.159 1.157,1.159 z"
           fill="url(#linearGradient194e718deb1246bd6f657320b87575a2)"
           class="fill c1"
           id="path24"
           style="fill:url(#linearGradient194e718deb1246bd6f657320b87575a2)" />
      </g>
      <ellipse
         style="fill:#1a1a1a;fill-opacity:1;stroke:#1a1a1a"
         id="path43722"
         cx="203.98259"
         cy="266.33942"
         rx="5.7248502"
         ry="5.6687245" />
      <ellipse
         style="fill:#1a1a1a;fill-opacity:1;stroke:#1a1a1a"
         id="path43724"
         cx="321.84714"
         cy="151.44954"
         rx="6.2861104"
         ry="6.5106144" />
      <path
         style="fill:#1a1a1a;stroke:none;stroke-width:1px;stroke-linecap:butt;stroke-linejoin:miter;stroke-opacity:1"
         d="m 165.33985,167.58576 -1.3181,3.33301 4.18052,4.15981 1.20671,-3.78851 z"
         id="path44212" />
      <g
         transform="matrix(0.74360291,0,0,0.74360291,152.68329,106.4365)"
         opacity="1"
         id="g41">
        <defs
           class="defs"
           id="defs33">
          <linearGradient
             id="linearGradient73"
             class="linearGradient1"
             gradientTransform="rotate(-120,0.5,0.5)"
             x1="0.5"
             y1="0"
             x2="0.5"
             y2="1">
            <stop
               id="stop69"
               offset="0%"
               class="linearGradientColor1"
               stop-color="#b1f4d8" />
            <stop
               id="stop71"
               offset="83.33333333333334%"
               class="linearGradientColor2"
               stop-color="#ffffff" />
          </linearGradient>
        </defs>
        <g
           id="g39">
          <path
             fill="url(#linearGradient0b05c13acc5ec0297537a27abdbcef5d)"
             d="m 208.721,192.596 c -0.437,0.472 -0.842,0.909 -1.313,1.347 -19.836,20.543 -47.72,33.373 -78.5,33.373 -16.165,0 -31.521,-3.536 -45.329,-9.833 0.707,-2.795 0.606,-5.86 -0.539,-8.756 -0.63,-1.649 -1.537,-3.102 -2.629,-4.359 l 31.254,-49.423 -9.295,-5.018 -10.103,15.963 -6.095,-24.651 -8.352,-4.513 -1.112,1.953 2.964,12.023 6.23,25.224 -14.872,23.506 c -2.272,-0.26 -4.637,0 -6.917,0.876 -1.549,0.606 -2.964,1.448 -4.176,2.458 -24.685,-20.071 -40.479,-50.683 -40.479,-84.899 0,-8.318 0.943,-16.434 2.728,-24.214 l -6.938,-6.937 c -2.762,9.935 -4.21,20.374 -4.21,31.151 0,37.179 17.276,70.384 44.251,92.004 -0.876,2.964 -0.808,6.264 0.404,9.396 2.896,7.544 11.383,11.315 18.926,8.419 1.785,-0.707 3.368,-1.684 4.681,-2.93 15.087,7.039 31.892,10.979 49.606,10.979 33.441,0 63.682,-14.009 85.134,-36.472 0.64,-0.64 1.212,-1.28 1.819,-1.92 0.64,-0.673 1.246,-1.347 1.852,-2.054 l -2.66,-0.808 z M 71.725,220.885 c -0.808,0.37 -1.684,0.539 -2.593,0.539 -3.57,0 -6.499,-2.795 -6.702,-6.297 -0.034,-0.135 -0.034,-0.303 -0.034,-0.438 0,-3.031 2.054,-5.624 4.849,-6.466 0.606,-0.168 1.213,-0.269 1.886,-0.269 3.3,0 6.062,2.391 6.634,5.557 0.067,0.37 0.101,0.774 0.101,1.179 0.001,2.793 -1.716,5.184 -4.141,6.195 z"
             class="color c1"
             id="path35"
             style="fill:url(#linearGradient82)" />
          <path
             fill="url(#linearGradient0b05c13acc5ec0297537a27abdbcef5d)"
             d="m 246.102,130.396 c 0.437,-4.108 0.673,-8.284 0.673,-12.528 0,-15.895 -3.165,-31.05 -8.891,-44.891 3.873,-3.098 6.365,-7.88 6.365,-13.201 0,-9.295 -7.544,-16.838 -16.838,-16.838 -2.323,0 -4.513,0.472 -6.533,1.28 C 199.258,17.276 166.053,0 128.908,0 98.902,0 71.455,11.282 50.61,29.837 24.477,25.931 7.74,29.669 1.981,40.715 c -5.321,10.238 0.404,24.18 13.268,39.401 0.471,0.573 0.943,1.145 1.448,1.718 0.438,0.505 0.876,0.977 1.348,1.482 0.505,0.572 1.111,1.28 1.852,2.088 0.134,0.135 0.269,0.269 0.37,0.404 0.295,0.305 0.585,0.611 0.877,0.917 0.67,0.709 1.348,1.421 2.053,2.148 0.034,0.034 0.067,0.101 0.135,0.135 0.64,0.64 1.347,1.313 2.088,2.021 v 0.034 c 0.505,0.505 1.01,1.01 1.549,1.516 -1.044,1.751 -1.616,3.772 -1.616,5.927 0,6.5 5.287,11.787 11.787,11.787 2.694,0 5.22,-0.909 7.207,-2.492 0.034,0 0.034,0 0.034,0 10.709,8.554 22.799,17.074 35.663,25.123 2.425,1.583 4.849,3.065 7.308,4.513 5.49,3.368 11.08,6.567 16.771,9.699 2.896,1.583 5.826,3.132 8.756,4.647 0.202,0.101 0.37,0.202 0.572,0.303 32.768,17.007 68.094,30.275 96.854,35.933 0.741,0.168 1.448,0.303 2.19,0.438 3.3,0.606 6.533,1.111 9.631,1.515 0.943,0.101 1.852,0.236 2.762,0.303 4.344,0.471 8.453,0.741 12.292,0.741 7.476,0 13.976,-0.943 19.128,-2.93 5.186,-2.021 9.025,-5.051 11.247,-9.328 6.331,-12.227 -3.032,-29.739 -21.453,-48.362 z m -25.291,-71.9 c 0.572,-3.065 3.267,-5.422 6.499,-5.456 h 0.101 c 3.704,0 6.735,3.031 6.735,6.735 0,1.212 -0.303,2.357 -0.909,3.334 v 0.034 c -1.179,2.021 -3.334,3.368 -5.826,3.368 -0.707,0 -1.414,-0.101 -2.054,-0.337 -2.728,-0.876 -4.681,-3.401 -4.681,-6.399 0,-0.437 0.034,-0.875 0.135,-1.279 z M 19.223,74.661 C 8.48,61.493 4.439,50.582 7.942,43.813 c 2.997,-5.759 11.551,-8.722 24.416,-8.722 3.67,0 7.644,0.236 11.989,0.707 -10.71,11.08 -19.331,24.247 -25.124,38.863 z m 19.296,28.322 c -0.437,0.168 -0.909,0.236 -1.38,0.236 -2.593,0 -4.715,-2.122 -4.715,-4.715 0,-0.269 0.034,-0.539 0.067,-0.775 0.37,-2.223 2.324,-3.94 4.647,-3.94 0.27,0 0.505,0.034 0.741,0.067 0.034,0 0.067,0.034 0.067,0.034 1.718,0.269 3.132,1.516 3.637,3.166 h 0.034 c 0.168,0.472 0.236,0.943 0.236,1.448 10e-4,2.122 -1.414,3.906 -3.334,4.479 z m 178.554,79.611 C 191.816,178.486 157.937,167.17 120.017,147.84 l 20.341,-1.785 10.406,-0.909 2.559,-4.479 11.719,-20.273 c 0.034,0 0.034,0 0.067,0 6.499,0 11.787,-5.287 11.787,-11.787 0,-6.5 -5.287,-11.787 -11.787,-11.787 -6.499,0 -11.787,5.287 -11.787,11.787 0,3.368 1.448,6.399 3.704,8.554 l -11.45,19.802 -26.066,2.29 -4.344,0.404 -0.168,-1.684 -0.134,-1.65 -0.101,-1.381 27.985,-48.461 c 0.674,0.135 1.415,0.236 2.155,0.236 6.499,0 11.787,-5.287 11.787,-11.787 0,-6.5 -5.287,-11.787 -11.787,-11.787 -6.499,0 -11.787,5.287 -11.787,11.787 0,2.627 0.876,5.018 2.357,7.005 l -28.153,48.764 -0.64,1.145 -0.674,1.145 0.64,7.409 0.034,0.438 c -5.557,-3.031 -10.912,-6.095 -16.03,-9.16 l 12.427,-21.519 c 0.471,0.034 0.943,0.135 1.414,0.135 6.499,0 11.787,-5.287 11.787,-11.787 0,-6.5 -5.287,-11.787 -11.787,-11.787 -6.499,0 -11.787,5.287 -11.787,11.787 0,2.896 1.112,5.523 2.829,7.611 L 83.343,127.23 C 70.007,118.912 58.22,110.56 48.185,102.511 c 0.505,-1.246 0.741,-2.593 0.741,-4.008 0,-6.5 -5.287,-11.787 -11.787,-11.787 -1.987,0 -3.873,0.505 -5.489,1.347 -2.155,-2.088 -4.21,-4.142 -6.095,-6.163 5.961,-17.209 16.164,-32.464 29.298,-44.554 2.088,-1.92 4.277,-3.772 6.533,-5.557 18.59,-14.616 42.062,-23.372 67.522,-23.372 34.451,0 65.232,15.996 85.269,40.951 -2.257,2.863 -3.604,6.466 -3.604,10.406 0,9.295 7.544,16.838 16.838,16.838 0.943,0 1.852,-0.067 2.762,-0.236 5.287,12.797 8.183,26.807 8.183,41.49 0,1.684 -0.034,3.334 -0.101,4.984 -0.135,2.795 -0.37,5.557 -0.707,8.284 -2.323,19.097 -9.564,36.71 -20.475,51.46 z m -57.014,-73.987 c 0,-2.795 2.256,-5.052 5.052,-5.052 2.795,0 5.051,2.256 5.051,5.052 0,2.796 -2.256,5.051 -5.051,5.051 -2.796,0 -5.052,-2.256 -5.052,-5.051 z M 139.853,74.93 c 0,-2.795 2.256,-5.052 5.051,-5.052 2.795,0 5.052,2.256 5.052,5.052 0,2.795 -2.256,5.051 -5.052,5.051 -2.796,0 -5.051,-2.255 -5.051,-5.051 z M 99.441,98.504 c 0,-2.795 2.256,-5.052 5.052,-5.052 2.795,0 5.051,2.256 5.051,5.052 0,2.795 -2.256,5.051 -5.051,5.051 -2.796,0 -5.052,-2.256 -5.052,-5.051 z m 162.119,77.153 c -3.738,7.207 -16.299,10.069 -35.057,8.217 9.093,-13.403 15.492,-28.726 18.421,-45.228 14.683,15.896 20.677,29.198 16.636,37.011 z"
             class="color c1"
             id="path37"
             style="fill:url(#linearGradient84)" />
        </g>
      </g>
    </g>
  </g>
</svg>
